<?xml version="1.0" encoding="UTF-8" standalone="no"?>
<!DOCTYPE svg PUBLIC "-//W3C//DTD SVG 1.1//EN"
 "http://www.w3.org/Graphics/SVG/1.1/DTD/svg11.dtd">
<!-- Generated by graphviz version 2.40.1 (20161225.0304)
 -->
<!-- Title: HciSdk 对象状态转换图 Pages: 1 -->
<svg width="357pt" height="172pt"
 viewBox="0.00 0.00 357.00 172.26" xmlns="http://www.w3.org/2000/svg" xmlns:xlink="http://www.w3.org/1999/xlink">
<g id="graph0" class="graph" transform="scale(1 1) rotate(0) translate(4 168.2599)">
<title>HciSdk 对象状态转换图</title>
<polygon fill="#ffffff" stroke="transparent" points="-4,4 -4,-168.2599 353,-168.2599 353,4 -4,4"/>
<text text-anchor="middle" x="174.5" y="-7.8" font-family="Times,serif" font-size="14.00" fill="#000000">HciSdk 对象状态转换图</text>
<!-- start -->
<g id="node1" class="node">
<title>start</title>
<ellipse fill="#000000" stroke="#000000" cx="9" cy="-137.2599" rx="9" ry="9"/>
</g>
<!-- Created -->
<g id="node3" class="node">
<title>Created</title>
<ellipse fill="#ffffce" stroke="#a80036" cx="107" cy="-137.2599" rx="29.1151" ry="18"/>
<text text-anchor="middle" x="107" y="-134.4599" font-family="Times,serif" font-size="11.00" fill="#000000">Created</text>
</g>
<!-- start&#45;&gt;Created -->
<g id="edge1" class="edge">
<title>start&#45;&gt;Created</title>
<path fill="none" stroke="#a80036" d="M18.0439,-137.2599C29.2662,-137.2599 49.1404,-137.2599 67.2609,-137.2599"/>
<polygon fill="#a80036" stroke="#a80036" points="77.3641,-137.2599 67.3641,-141.76 72.3641,-137.2599 67.3641,-137.26 67.3641,-137.26 67.3641,-137.26 72.3641,-137.2599 67.3641,-132.76 77.3641,-137.2599 77.3641,-137.2599"/>
<text text-anchor="middle" x="47.8465" y="-143.4599" font-family="Times,serif" font-size="11.00" fill="#000000">创建对象</text>
</g>
<!-- end -->
<g id="node2" class="node">
<title>end</title>
<ellipse fill="#000000" stroke="#000000" cx="336" cy="-137.2599" rx="9" ry="9"/>
<ellipse fill="none" stroke="#000000" cx="336" cy="-137.2599" rx="13" ry="13"/>
</g>
<!-- Running -->
<g id="node4" class="node">
<title>Running</title>
<ellipse fill="#ffffce" stroke="#a80036" cx="143" cy="-43.2599" rx="31.4556" ry="18"/>
<text text-anchor="middle" x="143" y="-40.4599" font-family="Times,serif" font-size="11.00" fill="#000000">Running</text>
</g>
<!-- Created&#45;&gt;Running -->
<g id="edge3" class="edge">
<title>Created&#45;&gt;Running</title>
<path fill="none" stroke="#a80036" d="M109.1864,-119.1509C110.8319,-108.6979 113.5819,-95.4479 118,-84.2599 120.0669,-79.0258 122.782,-73.7014 125.6596,-68.6982"/>
<polygon fill="#a80036" stroke="#a80036" points="130.9101,-60.1284 129.523,-71.0062 128.298,-64.3918 125.6859,-68.6553 125.6859,-68.6553 125.6859,-68.6553 128.298,-64.3918 121.8488,-66.3044 130.9101,-60.1284 130.9101,-60.1284"/>
<text text-anchor="middle" x="141.5" y="-87.4599" font-family="Times,serif" font-size="11.00" fill="#000000">调用 Init</text>
</g>
<!-- Closed -->
<g id="node6" class="node">
<title>Closed</title>
<ellipse fill="#ffffce" stroke="#a80036" cx="218" cy="-137.2599" rx="27" ry="18"/>
<text text-anchor="middle" x="218" y="-134.4599" font-family="Times,serif" font-size="11.00" fill="#000000">Closed</text>
</g>
<!-- Created&#45;&gt;Closed -->
<g id="edge2" class="edge">
<title>Created&#45;&gt;Closed</title>
<path fill="none" stroke="#a80036" d="M136.4545,-137.2599C149.9954,-137.2599 166.2114,-137.2599 180.6034,-137.2599"/>
<polygon fill="#a80036" stroke="#a80036" points="190.6964,-137.2599 180.6964,-141.76 185.6964,-137.2599 180.6964,-137.26 180.6964,-137.26 180.6964,-137.26 185.6964,-137.2599 180.6964,-132.76 190.6964,-137.2599 190.6964,-137.2599"/>
<text text-anchor="middle" x="163.6535" y="-143.4599" font-family="Times,serif" font-size="11.00" fill="#000000">Close()</text>
</g>
<!-- Running&#45;&gt;Running -->
<g id="edge6" class="edge">
<title>Running:nw&#45;&gt;Running:sw</title>
<path fill="none" stroke="#a80036" d="M127,-59.2599C111.8407,-66.2599 97.5222,-66.2599 97.5222,-43.2599 97.5222,-25.2911 106.2615,-21.3604 117.3135,-23.8385"/>
<polygon fill="#a80036" stroke="#a80036" points="127,-27.2599 116.0722,-28.1724 122.2854,-25.5946 117.5709,-23.9293 117.5709,-23.9293 117.5709,-23.9293 122.2854,-25.5946 119.0696,-19.6862 127,-27.2599 127,-27.2599"/>
<text text-anchor="middle" x="74.0222" y="-40.4599" font-family="Times,serif" font-size="11.00" fill="#000000">Init 成功</text>
</g>
<!-- Closing -->
<g id="node5" class="node">
<title>Closing</title>
<ellipse fill="#ffffce" stroke="#a80036" cx="257" cy="-43.2599" rx="28.4447" ry="18"/>
<text text-anchor="middle" x="257" y="-40.4599" font-family="Times,serif" font-size="11.00" fill="#000000">Closing</text>
</g>
<!-- Running&#45;&gt;Closing -->
<g id="edge4" class="edge">
<title>Running&#45;&gt;Closing</title>
<path fill="none" stroke="#a80036" d="M174.7554,-43.2599C188.3271,-43.2599 204.2916,-43.2599 218.5265,-43.2599"/>
<polygon fill="#a80036" stroke="#a80036" points="228.5271,-43.2599 218.5271,-47.76 223.5271,-43.2599 218.5271,-43.26 218.5271,-43.26 218.5271,-43.26 223.5271,-43.2599 218.527,-38.76 228.5271,-43.2599 228.5271,-43.2599"/>
<text text-anchor="middle" x="201.6282" y="-49.4599" font-family="Times,serif" font-size="11.00" fill="#000000">Close()</text>
</g>
<!-- Running&#45;&gt;Closed -->
<g id="edge5" class="edge">
<title>Running&#45;&gt;Closed</title>
<path fill="none" stroke="#a80036" d="M156.2911,-59.918C168.0761,-74.6886 185.4327,-96.4421 198.739,-113.1195"/>
<polygon fill="#a80036" stroke="#a80036" points="205.2773,-121.314 195.5229,-116.3038 202.1589,-117.4056 199.0404,-113.4972 199.0404,-113.4972 199.0404,-113.4972 202.1589,-117.4056 202.558,-110.6906 205.2773,-121.314 205.2773,-121.314"/>
<text text-anchor="middle" x="208.5" y="-87.4599" font-family="Times,serif" font-size="11.00" fill="#000000">Init 失败</text>
</g>
<!-- Closing&#45;&gt;Closing -->
<g id="edge7" class="edge">
<title>Closing:ne&#45;&gt;Closing:se</title>
<path fill="none" stroke="#a80036" d="M272,-58.2599C286.0738,-65.2599 299.2215,-65.2599 299.2215,-43.2599 299.2215,-26.4161 291.5146,-22.4684 281.5857,-24.6847"/>
<polygon fill="#a80036" stroke="#a80036" points="272,-28.2599 279.7969,-20.5489 276.6848,-26.5125 281.3695,-24.7652 281.3695,-24.7652 281.3695,-24.7652 276.6848,-26.5125 282.9421,-28.9815 272,-28.2599 272,-28.2599"/>
<text text-anchor="middle" x="292.5" y="-61.4599" font-family="Times,serif" font-size="11.00" fill="#000000">Close()</text>
</g>
<!-- Closing&#45;&gt;Closed -->
<g id="edge9" class="edge">
<title>Closing&#45;&gt;Closed</title>
<path fill="none" stroke="#a80036" d="M249.6973,-60.8613C243.9321,-74.7567 235.7902,-94.3808 229.2019,-110.2605"/>
<polygon fill="#a80036" stroke="#a80036" points="225.3356,-119.5792 225.0114,-108.6181 227.2517,-114.9609 229.1679,-110.3426 229.1679,-110.3426 229.1679,-110.3426 227.2517,-114.9609 233.3243,-112.0671 225.3356,-119.5792 225.3356,-119.5792"/>
<text text-anchor="middle" x="263" y="-87.4599" font-family="Times,serif" font-size="11.00" fill="#000000">关闭完成</text>
</g>
<!-- Closed&#45;&gt;end -->
<g id="edge10" class="edge">
<title>Closed&#45;&gt;end</title>
<path fill="none" stroke="#a80036" d="M245.0716,-137.2599C265.5294,-137.2599 293.3163,-137.2599 312.7698,-137.2599"/>
<polygon fill="#a80036" stroke="#a80036" points="322.8812,-137.2599 312.8812,-141.76 317.8812,-137.2599 312.8812,-137.26 312.8812,-137.26 312.8812,-137.26 317.8812,-137.2599 312.8811,-132.76 322.8812,-137.2599 322.8812,-137.2599"/>
<text text-anchor="middle" x="284" y="-143.4599" font-family="Times,serif" font-size="11.00" fill="#000000">释放对象</text>
</g>
<!-- Closed&#45;&gt;Closed -->
<g id="edge8" class="edge">
<title>Closed:ne&#45;&gt;Closed:se</title>
<path fill="none" stroke="#a80036" d="M233,-152.2599C246.6667,-159.2599 259,-159.2599 259,-137.2599 259,-120.588 251.9172,-116.5503 242.5388,-118.6188"/>
<polygon fill="#a80036" stroke="#a80036" points="233,-122.2599 240.7377,-114.4895 237.6713,-120.4767 242.3425,-118.6936 242.3425,-118.6936 242.3425,-118.6936 237.6713,-120.4767 243.9473,-122.8978 233,-122.2599 233,-122.2599"/>
<text text-anchor="middle" x="253.5" y="-155.4599" font-family="Times,serif" font-size="11.00" fill="#000000">Close()</text>
</g>
</g>
</svg>
