<?xml version="1.0" encoding="UTF-8" standalone="no"?>
<!DOCTYPE svg PUBLIC "-//W3C//DTD SVG 1.1//EN"
 "http://www.w3.org/Graphics/SVG/1.1/DTD/svg11.dtd">
<!-- Generated by graphviz version 2.40.1 (20161225.0304)
 -->
<!-- Title: 能力会话状态转换图 Pages: 1 -->
<svg width="507pt" height="261pt"
 viewBox="0.00 0.00 506.93 261.36" xmlns="http://www.w3.org/2000/svg" xmlns:xlink="http://www.w3.org/1999/xlink">
<g id="graph0" class="graph" transform="scale(1 1) rotate(0) translate(4 257.3557)">
<title>能力会话状态转换图</title>
<polygon fill="#ffffff" stroke="transparent" points="-4,4 -4,-257.3557 502.931,-257.3557 502.931,4 -4,4"/>
<text text-anchor="middle" x="249.4655" y="-7.8" font-family="Times,serif" font-size="14.00" fill="#000000">能力会话状态转换图</text>
<!-- start -->
<g id="node1" class="node">
<title>start</title>
<ellipse fill="#000000" stroke="#000000" cx="125.931" cy="-244.3557" rx="9" ry="9"/>
</g>
<!-- Idle -->
<g id="node3" class="node">
<title>Idle</title>
<ellipse fill="#ffffce" stroke="#a80036" cx="125.931" cy="-183.3557" rx="27" ry="18"/>
<text text-anchor="middle" x="125.931" y="-180.5557" font-family="Times,serif" font-size="11.00" fill="#000000">Idle</text>
</g>
<!-- start&#45;&gt;Idle -->
<g id="edge1" class="edge">
<title>start&#45;&gt;Idle</title>
<path fill="none" stroke="#a80036" d="M125.931,-235.3549C125.931,-229.0405 125.931,-220.2248 125.931,-211.6437"/>
<polygon fill="#a80036" stroke="#a80036" points="125.931,-201.4771 130.4311,-211.477 125.9311,-206.4771 125.9311,-211.4771 125.9311,-211.4771 125.9311,-211.4771 125.9311,-206.4771 121.4311,-211.4771 125.931,-201.4771 125.931,-201.4771"/>
<text text-anchor="middle" x="148.931" y="-215.5557" font-family="Times,serif" font-size="11.00" fill="#000000">创建对象</text>
</g>
<!-- end -->
<g id="node2" class="node">
<title>end</title>
<ellipse fill="#000000" stroke="#000000" cx="485.931" cy="-43.3557" rx="9" ry="9"/>
<ellipse fill="none" stroke="#000000" cx="485.931" cy="-43.3557" rx="13" ry="13"/>
</g>
<!-- Running -->
<g id="node4" class="node">
<title>Running</title>
<ellipse fill="#ffffce" stroke="#a80036" cx="139.931" cy="-113.3557" rx="31.4556" ry="18"/>
<text text-anchor="middle" x="139.931" y="-110.5557" font-family="Times,serif" font-size="11.00" fill="#000000">Running</text>
</g>
<!-- Idle&#45;&gt;Running -->
<g id="edge2" class="edge">
<title>Idle&#45;&gt;Running</title>
<path fill="none" stroke="#a80036" d="M106.9161,-170.3105C98.0777,-162.5455 90.5777,-152.2955 95.931,-142.3557 98.416,-137.7417 101.9918,-133.7407 106.0459,-130.3092"/>
<polygon fill="#a80036" stroke="#a80036" points="114.2705,-124.401 108.7743,-133.89 110.2097,-127.3181 106.1489,-130.2353 106.1489,-130.2353 106.1489,-130.2353 110.2097,-127.3181 103.5234,-126.5805 114.2705,-124.401 114.2705,-124.401"/>
<text text-anchor="middle" x="118.931" y="-145.5557" font-family="Times,serif" font-size="11.00" fill="#000000">功能调用</text>
</g>
<!-- Closing -->
<g id="node6" class="node">
<title>Closing</title>
<ellipse fill="#ffffce" stroke="#a80036" cx="214.931" cy="-43.3557" rx="28.4447" ry="18"/>
<text text-anchor="middle" x="214.931" y="-40.5557" font-family="Times,serif" font-size="11.00" fill="#000000">Closing</text>
</g>
<!-- Idle&#45;&gt;Closing -->
<g id="edge8" class="edge">
<title>Idle:e&#45;&gt;Closing:n</title>
<path fill="none" stroke="#a80036" d="M152.931,-183.3557C210.3084,-183.3557 214.6063,-128.912 214.9091,-71.683"/>
<polygon fill="#a80036" stroke="#a80036" points="214.931,-61.3557 219.4097,-71.3653 214.9204,-66.3557 214.9097,-71.3557 214.9097,-71.3557 214.9097,-71.3557 214.9204,-66.3557 210.4097,-71.3461 214.931,-61.3557 214.931,-61.3557"/>
<text text-anchor="middle" x="234.431" y="-110.5557" font-family="Times,serif" font-size="11.00" fill="#000000">Close()</text>
</g>
<!-- Running&#45;&gt;Idle -->
<g id="edge3" class="edge">
<title>Running&#45;&gt;Idle</title>
<path fill="none" stroke="#a80036" d="M142.3965,-131.5356C142.8506,-138.7325 142.7153,-147.0223 140.931,-154.3557 140.7083,-155.2713 140.4511,-156.1904 140.1651,-157.1085"/>
<polygon fill="#a80036" stroke="#a80036" points="136.2394,-166.7141 135.8571,-155.7548 138.131,-162.0857 140.0226,-157.4573 140.0226,-157.4573 140.0226,-157.4573 138.131,-162.0857 144.1882,-159.1597 136.2394,-166.7141 136.2394,-166.7141"/>
<text text-anchor="middle" x="165.931" y="-145.5557" font-family="Times,serif" font-size="11.00" fill="#000000">正常结束</text>
</g>
<!-- Stopping -->
<g id="node5" class="node">
<title>Stopping</title>
<ellipse fill="#ffffce" stroke="#a80036" cx="69.931" cy="-43.3557" rx="33.2122" ry="18"/>
<text text-anchor="middle" x="69.931" y="-40.5557" font-family="Times,serif" font-size="11.00" fill="#000000">Stopping</text>
</g>
<!-- Running&#45;&gt;Stopping -->
<g id="edge4" class="edge">
<title>Running&#45;&gt;Stopping</title>
<path fill="none" stroke="#a80036" d="M117.8181,-100.308C111.0288,-95.7389 103.8056,-90.2605 97.931,-84.3557 93.4912,-79.8931 89.3059,-74.6399 85.5911,-69.4104"/>
<polygon fill="#a80036" stroke="#a80036" points="79.8217,-60.7756 89.119,-66.5905 82.5995,-64.9331 85.3773,-69.0905 85.3773,-69.0905 85.3773,-69.0905 82.5995,-64.9331 81.6357,-71.5905 79.8217,-60.7756 79.8217,-60.7756"/>
<text text-anchor="middle" x="122.431" y="-75.5557" font-family="Times,serif" font-size="11.00" fill="#000000">停止/取消</text>
</g>
<!-- Running&#45;&gt;Closing -->
<g id="edge7" class="edge">
<title>Running&#45;&gt;Closing</title>
<path fill="none" stroke="#a80036" d="M148.6882,-95.6801C153.1227,-87.9068 159.033,-79.0448 165.931,-72.3557 170.9851,-67.4547 177.0194,-63.0362 183.0974,-59.211"/>
<polygon fill="#a80036" stroke="#a80036" points="191.9246,-54.0441 185.5676,-62.9794 187.6095,-56.5699 183.2943,-59.0958 183.2943,-59.0958 183.2943,-59.0958 187.6095,-56.5699 181.0211,-55.2122 191.9246,-54.0441 191.9246,-54.0441"/>
<text text-anchor="middle" x="186.431" y="-75.5557" font-family="Times,serif" font-size="11.00" fill="#000000">Close()</text>
</g>
<!-- Stopping&#45;&gt;Idle -->
<g id="edge5" class="edge">
<title>Stopping&#45;&gt;Idle:w</title>
<path fill="none" stroke="#a80036" d="M66.2059,-61.3716C59.87,-96.3771 51.0847,-171.1167 88.9099,-182.0181"/>
<polygon fill="#a80036" stroke="#a80036" points="98.931,-183.3557 88.4235,-186.493 93.975,-182.6941 89.0189,-182.0326 89.0189,-182.0326 89.0189,-182.0326 93.975,-182.6941 89.6144,-177.5721 98.931,-183.3557 98.931,-183.3557"/>
<text text-anchor="middle" x="30.5" y="-133.9697" font-family="Times,serif" font-size="11.00" fill="#000000">被停止/取消</text>
</g>
<!-- Stopping&#45;&gt;Closing -->
<g id="edge6" class="edge">
<title>Stopping&#45;&gt;Closing</title>
<path fill="none" stroke="#a80036" d="M103.0658,-43.3557C127.5176,-43.3557 151.9693,-43.3557 176.421,-43.3557"/>
<polygon fill="#a80036" stroke="#a80036" points="186.5278,-43.3557 176.5278,-47.8558 181.5278,-43.3557 176.5278,-43.3558 176.5278,-43.3558 176.5278,-43.3558 181.5278,-43.3557 176.5277,-38.8558 186.5278,-43.3557 186.5278,-43.3557"/>
<text text-anchor="middle" x="124.4012" y="-46.5557" font-family="Times,serif" font-size="11.00" fill="#000000">Close()</text>
</g>
<!-- Closing&#45;&gt;Closing -->
<g id="edge9" class="edge">
<title>Closing:ne&#45;&gt;Closing:se</title>
<path fill="none" stroke="#a80036" d="M229.931,-58.3557C244.0049,-66.8557 257.1525,-66.8557 257.1525,-43.3557 257.1525,-25.1799 249.2875,-21.062 239.2121,-24.0617"/>
<polygon fill="#a80036" stroke="#a80036" points="229.931,-28.3557 237.1172,-20.0726 234.4689,-26.2562 239.0068,-24.1567 239.0068,-24.1567 239.0068,-24.1567 234.4689,-26.2562 240.8963,-28.2407 229.931,-28.3557 229.931,-28.3557"/>
<text text-anchor="middle" x="250.431" y="-61.5557" font-family="Times,serif" font-size="11.00" fill="#000000">Close()</text>
</g>
<!-- Closed -->
<g id="node7" class="node">
<title>Closed</title>
<ellipse fill="#ffffce" stroke="#a80036" cx="371.931" cy="-43.3557" rx="27" ry="18"/>
<text text-anchor="middle" x="371.931" y="-40.5557" font-family="Times,serif" font-size="11.00" fill="#000000">Closed</text>
</g>
<!-- Closing&#45;&gt;Closed -->
<g id="edge11" class="edge">
<title>Closing&#45;&gt;Closed</title>
<path fill="none" stroke="#a80036" d="M243.4486,-43.3557C273.81,-43.3557 304.1714,-43.3557 334.5328,-43.3557"/>
<polygon fill="#a80036" stroke="#a80036" points="344.8293,-43.3557 334.8293,-47.8558 339.8293,-43.3557 334.8293,-43.3558 334.8293,-43.3558 334.8293,-43.3558 339.8293,-43.3557 334.8292,-38.8558 344.8293,-43.3557 344.8293,-43.3557"/>
<text text-anchor="middle" x="310.9719" y="-34.5557" font-family="Times,serif" font-size="11.00" fill="#000000">会话关闭完成</text>
</g>
<!-- Closed&#45;&gt;end -->
<g id="edge12" class="edge">
<title>Closed&#45;&gt;end</title>
<path fill="none" stroke="#a80036" d="M399.0951,-43.3557C420.2763,-43.3557 441.4575,-43.3557 462.6387,-43.3557"/>
<polygon fill="#a80036" stroke="#a80036" points="472.7021,-43.3557 462.7022,-47.8558 467.7021,-43.3557 462.7021,-43.3558 462.7021,-43.3558 462.7021,-43.3558 467.7021,-43.3557 462.7021,-38.8558 472.7021,-43.3557 472.7021,-43.3557"/>
<text text-anchor="middle" x="447.3312" y="-34.5557" font-family="Times,serif" font-size="11.00" fill="#000000">释放对象</text>
</g>
<!-- Closed&#45;&gt;Closed -->
<g id="edge10" class="edge">
<title>Closed:ne&#45;&gt;Closed:se</title>
<path fill="none" stroke="#a80036" d="M386.931,-58.3557C400.5977,-66.8557 412.931,-66.8557 412.931,-43.3557 412.931,-25.3635 405.7015,-21.1466 396.1791,-23.973"/>
<polygon fill="#a80036" stroke="#a80036" points="386.931,-28.3557 394.0405,-20.0067 391.4493,-26.2144 395.9677,-24.0731 395.9677,-24.0731 395.9677,-24.0731 391.4493,-26.2144 397.8948,-28.1396 386.931,-28.3557 386.931,-28.3557"/>
<text text-anchor="middle" x="407.431" y="-61.5557" font-family="Times,serif" font-size="11.00" fill="#000000">Close()</text>
</g>
</g>
</svg>
